<svg width="4469" height="1821" xmlns="http://www.w3.org/2000/svg" xmlns:xlink="http://www.w3.org/1999/xlink" xml:space="preserve" overflow="hidden"><defs><clipPath id="clip0"><rect x="-108" y="355" width="4469" height="1821"/></clipPath></defs><g clip-path="url(#clip0)" transform="translate(108 -355)"><rect x="-108" y="366" width="4469" height="1768" fill="#F2F2F2"/><text fill="#005C6D" font-family="Arial,Arial_MSFontService,sans-serif" font-weight="400" font-size="64" transform="matrix(1 0 0 1 642.867 805)">•</text><text fill="#005C6D" font-family="DIN Pro Regular,DIN Pro Regular_MSFontService,sans-serif" font-weight="400" font-size="64" transform="matrix(1 0 0 1 745.992 805)">Mapping &amp; modelling </text><text fill="#005C6D" font-family="DIN Pro Regular,DIN Pro Regular_MSFontService,sans-serif" font-weight="400" font-size="64" transform="matrix(1 0 0 1 745.992 882)">ocean</text><text fill="#005C6D" font-family="DIN Pro Regular,DIN Pro Regular_MSFontService,sans-serif" font-weight="400" font-size="64" transform="matrix(1 0 0 1 914.04 882)">-</text><text fill="#005C6D" font-family="DIN Pro Regular,DIN Pro Regular_MSFontService,sans-serif" font-weight="400" font-size="64" transform="matrix(1 0 0 1 941.54 882)">climate </text><text fill="#005C6D" font-family="DIN Pro Regular,DIN Pro Regular_MSFontService,sans-serif" font-weight="400" font-size="64" transform="matrix(1 0 0 1 745.992 959)">interactions</text><text fill="#005C6D" font-family="Arial,Arial_MSFontService,sans-serif" font-weight="400" font-size="64" transform="matrix(1 0 0 1 642.867 1036)">•</text><text fill="#005C6D" font-family="DIN Pro Regular,DIN Pro Regular_MSFontService,sans-serif" font-weight="400" font-size="64" transform="matrix(1 0 0 1 745.992 1036)">Marine CO</text><text fill="#005C6D" font-family="DIN Pro Regular,DIN Pro Regular_MSFontService,sans-serif" font-weight="400" font-size="43" transform="matrix(1 0 0 1 1042.69 1051)">2</text><text fill="#005C6D" font-family="DIN Pro Regular,DIN Pro Regular_MSFontService,sans-serif" font-weight="400" font-size="64" transform="matrix(1 0 0 1 1081.08 1036)">removal</text><text fill="#005C6D" font-family="Arial,Arial_MSFontService,sans-serif" font-weight="400" font-size="64" transform="matrix(1 0 0 1 642.867 1113)">•</text><text fill="#005C6D" font-family="DIN Pro Regular,DIN Pro Regular_MSFontService,sans-serif" font-weight="400" font-size="64" transform="matrix(1 0 0 1 745.992 1113)">Ocean acidification</text><path d="M0 0 0.000721785 192.425" stroke="#1B345E" stroke-width="4.58333" stroke-miterlimit="8" fill="none" fill-rule="evenodd" transform="matrix(-1 0 0 1 415.501 1055.5)"/><text fill="#005C6D" font-family="DIN Pro Bold,DIN Pro Bold_MSFontService,sans-serif" font-weight="700" font-size="92" transform="matrix(1 0 0 1 604.801 503)">OCEAN</text><text fill="#005C6D" font-family="DIN Pro Bold,DIN Pro Bold_MSFontService,sans-serif" font-weight="700" font-size="92" transform="matrix(1 0 0 1 898.936 503)">-</text><text fill="#005C6D" font-family="DIN Pro Bold,DIN Pro Bold_MSFontService,sans-serif" font-weight="700" font-size="92" transform="matrix(1 0 0 1 604.801 613)">CLIMATE </text><text fill="#005C6D" font-family="DIN Pro Bold,DIN Pro Bold_MSFontService,sans-serif" font-weight="700" font-size="92" transform="matrix(1 0 0 1 604.801 723)">SYSTEMS</text><path d="M1052 540 1115 577 1052 614Z" fill="#005C6D" fill-rule="evenodd"/><path d="M210 850.5C210 737.558 301.558 646 414.5 646 527.442 646 619 737.558 619 850.5 619 963.442 527.442 1055 414.5 1055 301.558 1055 210 963.442 210 850.5Z" fill="#005C6D" fill-rule="evenodd"/><text fill="#FFFFFF" font-family="Arial,Arial_MSFontService,sans-serif" font-weight="700" font-size="220" transform="matrix(1 0 0 1 292.147 931)">01</text><path d="M0 0 0.000721785 192.425" stroke="#1B345E" stroke-width="4.58333" stroke-miterlimit="8" fill="none" fill-rule="evenodd" transform="matrix(-1 0 0 1 1715.5 1055.5)"/><path d="M1511 850.5C1511 737.558 1602.56 646 1715.5 646 1828.44 646 1920 737.558 1920 850.5 1920 963.442 1828.44 1055 1715.5 1055 1602.56 1055 1511 963.442 1511 850.5Z" fill="#0CA8DA" fill-rule="evenodd"/><text fill="#FFFFFF" font-family="Arial,Arial_MSFontService,sans-serif" font-weight="700" font-size="220" transform="matrix(1 0 0 1 1592.64 931)">02</text><path d="M0 0 0.000721785 192.425" stroke="#1B345E" stroke-width="4.58333" stroke-miterlimit="8" fill="none" fill-rule="evenodd" transform="matrix(-1 0 0 1 3018.5 1054.5)"/><path d="M2813 849.5C2813 736.558 2904.78 645 3018 645 3131.22 645 3223 736.558 3223 849.5 3223 962.442 3131.22 1054 3018 1054 2904.78 1054 2813 962.442 2813 849.5Z" fill="#005C6D" fill-rule="evenodd"/><text fill="#FFFFFF" font-family="Arial,Arial_MSFontService,sans-serif" font-weight="700" font-size="220" transform="matrix(1 0 0 1 2895.31 930)">03</text><text fill="#0CA8DA" font-family="Arial,Arial_MSFontService,sans-serif" font-weight="400" font-size="64" transform="matrix(1 0 0 1 1946.09 798)">•</text><text fill="#0CA8DA" font-family="DIN Pro Regular,DIN Pro Regular_MSFontService,sans-serif" font-weight="400" font-size="64" transform="matrix(1 0 0 1 2049.22 798)">Impact of oceans on </text><text fill="#0CA8DA" font-family="DIN Pro Regular,DIN Pro Regular_MSFontService,sans-serif" font-weight="400" font-size="64" transform="matrix(1 0 0 1 2049.22 875)">human health</text><text fill="#0CA8DA" font-family="Arial,Arial_MSFontService,sans-serif" font-weight="400" font-size="64" transform="matrix(1 0 0 1 1946.09 952)">•</text><text fill="#0CA8DA" font-family="DIN Pro Regular,DIN Pro Regular_MSFontService,sans-serif" font-weight="400" font-size="64" transform="matrix(1 0 0 1 2049.22 952)">Measuring cumulative </text><text fill="#0CA8DA" font-family="DIN Pro Regular,DIN Pro Regular_MSFontService,sans-serif" font-weight="400" font-size="64" transform="matrix(1 0 0 1 2049.22 1029)">impacts &amp; multiple </text><text fill="#0CA8DA" font-family="DIN Pro Regular,DIN Pro Regular_MSFontService,sans-serif" font-weight="400" font-size="64" transform="matrix(1 0 0 1 2049.22 1106)">stressors</text><text fill="#0CA8DA" font-family="DIN Pro Bold,DIN Pro Bold_MSFontService,sans-serif" font-weight="700" font-size="92" transform="matrix(1 0 0 1 1831.96 543)">MARINE </text><text fill="#0CA8DA" font-family="DIN Pro Bold,DIN Pro Bold_MSFontService,sans-serif" font-weight="700" font-size="92" transform="matrix(1 0 0 1 1831.96 653)">POLLUTION</text><path d="M2385 526 2449 563 2385 600Z" fill="#0CA8DA" fill-rule="evenodd"/><text fill="#005C6D" font-family="Arial,Arial_MSFontService,sans-serif" font-weight="400" font-size="64" transform="matrix(1 0 0 1 3231.01 776)">•</text><text fill="#005C6D" font-family="DIN Pro Regular,DIN Pro Regular_MSFontService,sans-serif" font-weight="400" font-size="64" transform="matrix(1 0 0 1 3334.14 776)">Low</text><text fill="#005C6D" font-family="DIN Pro Regular,DIN Pro Regular_MSFontService,sans-serif" font-weight="400" font-size="64" transform="matrix(1 0 0 1 3450.37 776)">-</text><text fill="#005C6D" font-family="DIN Pro Regular,DIN Pro Regular_MSFontService,sans-serif" font-weight="400" font-size="64" transform="matrix(1 0 0 1 3477.87 776)">cost technology and </text><text fill="#005C6D" font-family="DIN Pro Regular,DIN Pro Regular_MSFontService,sans-serif" font-weight="400" font-size="64" transform="matrix(1 0 0 1 3334.14 853)">infrastructure solutions for </text><text fill="#005C6D" font-family="DIN Pro Regular,DIN Pro Regular_MSFontService,sans-serif" font-weight="400" font-size="64" transform="matrix(1 0 0 1 3334.14 930)">data gathering and </text><text fill="#005C6D" font-family="DIN Pro Regular,DIN Pro Regular_MSFontService,sans-serif" font-weight="400" font-size="64" transform="matrix(1 0 0 1 3334.14 1007)">management</text><text fill="#005C6D" font-family="Arial,Arial_MSFontService,sans-serif" font-weight="400" font-size="64" transform="matrix(1 0 0 1 3231.01 1084)">•</text><text fill="#005C6D" font-family="DIN Pro Regular,DIN Pro Regular_MSFontService,sans-serif" font-weight="400" font-size="64" transform="matrix(1 0 0 1 3334.14 1084)">Data management for Decade </text><text fill="#005C6D" font-family="DIN Pro Regular,DIN Pro Regular_MSFontService,sans-serif" font-weight="400" font-size="64" transform="matrix(1 0 0 1 3334.14 1161)">Actions, including FAIR and </text><text fill="#005C6D" font-family="DIN Pro Regular,DIN Pro Regular_MSFontService,sans-serif" font-weight="400" font-size="64" transform="matrix(1 0 0 1 3334.14 1238)">CARE data principles</text><path d="M3941 529 4005 566 3941 603Z" fill="#005C6D" fill-rule="evenodd"/><text fill="#0CA8DA" font-family="Arial,Arial_MSFontService,sans-serif" font-weight="400" font-size="64" transform="matrix(1 0 0 1 -34.0094 1586)">•</text><text fill="#0CA8DA" font-family="DIN Pro Regular,DIN Pro Regular_MSFontService,sans-serif" font-weight="400" font-size="64" transform="matrix(1 0 0 1 69.1156 1586)">Mapping &amp; modelling </text><text fill="#0CA8DA" font-family="DIN Pro Regular,DIN Pro Regular_MSFontService,sans-serif" font-weight="400" font-size="64" transform="matrix(1 0 0 1 69.1156 1663)">biodiversity</text><text fill="#0CA8DA" font-family="Arial,Arial_MSFontService,sans-serif" font-weight="400" font-size="64" transform="matrix(1 0 0 1 -34.0094 1740)">•</text><text fill="#0CA8DA" font-family="DIN Pro Regular,DIN Pro Regular_MSFontService,sans-serif" font-weight="400" font-size="64" transform="matrix(1 0 0 1 69.1156 1740)">Ecosystem Approaches to </text><text fill="#0CA8DA" font-family="DIN Pro Regular,DIN Pro Regular_MSFontService,sans-serif" font-weight="400" font-size="64" transform="matrix(1 0 0 1 69.1156 1817)">Fisheries</text><text fill="#0CA8DA" font-family="Arial,Arial_MSFontService,sans-serif" font-weight="400" font-size="64" transform="matrix(1 0 0 1 -34.0094 1894)">•</text><text fill="#0CA8DA" font-family="DIN Pro Regular,DIN Pro Regular_MSFontService,sans-serif" font-weight="400" font-size="64" transform="matrix(1 0 0 1 69.1156 1894)">Implementing the BBNJ </text><text fill="#0CA8DA" font-family="DIN Pro Regular,DIN Pro Regular_MSFontService,sans-serif" font-weight="400" font-size="64" transform="matrix(1 0 0 1 69.1156 1971)">Agreement</text><text fill="#0CA8DA" font-family="Arial,Arial_MSFontService,sans-serif" font-weight="400" font-size="64" transform="matrix(1 0 0 1 -34.0094 2048)">•</text><text fill="#0CA8DA" font-family="DIN Pro Regular,DIN Pro Regular_MSFontService,sans-serif" font-weight="400" font-size="64" transform="matrix(1 0 0 1 69.1156 2048)">eDNA techniques</text><text fill="#0CA8DA" font-family="DIN Pro Bold,DIN Pro Bold_MSFontService,sans-serif" font-weight="700" font-size="92" transform="matrix(1 0 0 1 -21.1573 1385)">MARINE </text><text fill="#0CA8DA" font-family="DIN Pro Bold,DIN Pro Bold_MSFontService,sans-serif" font-weight="700" font-size="92" transform="matrix(1 0 0 1 -21.1573 1495)">BIODIVERSITY</text><text fill="#005C6D" font-family="Arial,Arial_MSFontService,sans-serif" font-weight="400" font-size="64" transform="matrix(1 0 0 1 1428.7 1584)">•</text><text fill="#005C6D" font-family="DIN Pro Regular,DIN Pro Regular_MSFontService,sans-serif" font-weight="400" font-size="64" transform="matrix(1 0 0 1 1531.83 1584)">Science communication </text><text fill="#005C6D" font-family="DIN Pro Regular,DIN Pro Regular_MSFontService,sans-serif" font-weight="400" font-size="64" transform="matrix(1 0 0 1 1531.83 1661)">to support policy </text><text fill="#005C6D" font-family="DIN Pro Regular,DIN Pro Regular_MSFontService,sans-serif" font-weight="400" font-size="64" transform="matrix(1 0 0 1 1531.83 1738)">development </text><text fill="#005C6D" font-family="Arial,Arial_MSFontService,sans-serif" font-weight="400" font-size="64" transform="matrix(1 0 0 1 1428.7 1815)">•</text><text fill="#005C6D" font-family="DIN Pro Regular,DIN Pro Regular_MSFontService,sans-serif" font-weight="400" font-size="64" transform="matrix(1 0 0 1 1531.83 1815)">Working with &amp; </text><text fill="#005C6D" font-family="DIN Pro Regular,DIN Pro Regular_MSFontService,sans-serif" font-weight="400" font-size="64" transform="matrix(1 0 0 1 1531.83 1892)">influencing policy </text><text fill="#005C6D" font-family="DIN Pro Regular,DIN Pro Regular_MSFontService,sans-serif" font-weight="400" font-size="64" transform="matrix(1 0 0 1 1531.83 1969)">makers</text><text fill="#005C6D" font-family="Arial,Arial_MSFontService,sans-serif" font-weight="400" font-size="64" transform="matrix(1 0 0 1 1428.7 2046)">•</text><text fill="#005C6D" font-family="DIN Pro Regular,DIN Pro Regular_MSFontService,sans-serif" font-weight="400" font-size="64" transform="matrix(1 0 0 1 1531.83 2046)">Sustainable Ocean </text><text fill="#005C6D" font-family="DIN Pro Regular,DIN Pro Regular_MSFontService,sans-serif" font-weight="400" font-size="64" transform="matrix(1 0 0 1 1531.83 2123)">Planning</text><text fill="#005C6D" font-family="DIN Pro Bold,DIN Pro Bold_MSFontService,sans-serif" font-weight="700" font-size="92" transform="matrix(1 0 0 1 1497.37 1374)">SCIENCE</text><text fill="#005C6D" font-family="DIN Pro Bold,DIN Pro Bold_MSFontService,sans-serif" font-weight="700" font-size="92" transform="matrix(1 0 0 1 1890.97 1374)">-</text><text fill="#005C6D" font-family="DIN Pro Bold,DIN Pro Bold_MSFontService,sans-serif" font-weight="700" font-size="92" transform="matrix(1 0 0 1 1951.12 1374)">POLICY </text><text fill="#005C6D" font-family="DIN Pro Bold,DIN Pro Bold_MSFontService,sans-serif" font-weight="700" font-size="92" transform="matrix(1 0 0 1 1497.37 1484)">INTERFACE</text><text fill="#0CA8DA" font-family="Arial,Arial_MSFontService,sans-serif" font-weight="400" font-size="64" transform="matrix(1 0 0 1 2671.33 1533)">•</text><text fill="#0CA8DA" font-family="DIN Pro Regular,DIN Pro Regular_MSFontService,sans-serif" font-weight="400" font-size="64" transform="matrix(1 0 0 1 2774.45 1533)">Stakeholder engagement </text><text fill="#0CA8DA" font-family="DIN Pro Regular,DIN Pro Regular_MSFontService,sans-serif" font-weight="400" font-size="64" transform="matrix(1 0 0 1 2774.45 1610)">via transdisciplinary </text><text fill="#0CA8DA" font-family="DIN Pro Regular,DIN Pro Regular_MSFontService,sans-serif" font-weight="400" font-size="64" transform="matrix(1 0 0 1 2774.45 1687)">approaches</text><text fill="#0CA8DA" font-family="Arial,Arial_MSFontService,sans-serif" font-weight="400" font-size="64" transform="matrix(1 0 0 1 2671.33 1764)">•</text><text fill="#0CA8DA" font-family="DIN Pro Regular,DIN Pro Regular_MSFontService,sans-serif" font-weight="400" font-size="64" transform="matrix(1 0 0 1 2774.45 1764)">Engaging Local and </text><text fill="#0CA8DA" font-family="DIN Pro Regular,DIN Pro Regular_MSFontService,sans-serif" font-weight="400" font-size="64" transform="matrix(1 0 0 1 2774.45 1841)">Indigenous Knowledge </text><text fill="#0CA8DA" font-family="DIN Pro Regular,DIN Pro Regular_MSFontService,sans-serif" font-weight="400" font-size="64" transform="matrix(1 0 0 1 2774.45 1918)">holders</text><text fill="#0CA8DA" font-family="Arial,Arial_MSFontService,sans-serif" font-weight="400" font-size="64" transform="matrix(1 0 0 1 2671.33 1995)">•</text><text fill="#0CA8DA" font-family="DIN Pro Regular,DIN Pro Regular_MSFontService,sans-serif" font-weight="400" font-size="64" transform="matrix(1 0 0 1 2774.45 1995)">Managing, leading, &amp; </text><text fill="#0CA8DA" font-family="DIN Pro Regular,DIN Pro Regular_MSFontService,sans-serif" font-weight="400" font-size="64" transform="matrix(1 0 0 1 2774.45 2072)">financing ocean projects</text><text fill="#0CA8DA" font-family="DIN Pro Bold,DIN Pro Bold_MSFontService,sans-serif" font-weight="700" font-size="92" transform="matrix(1 0 0 1 2626.48 1444)">CO</text><text fill="#0CA8DA" font-family="DIN Pro Bold,DIN Pro Bold_MSFontService,sans-serif" font-weight="700" font-size="92" transform="matrix(1 0 0 1 2741.29 1444)">-</text><text fill="#0CA8DA" font-family="DIN Pro Bold,DIN Pro Bold_MSFontService,sans-serif" font-weight="700" font-size="92" transform="matrix(1 0 0 1 2780.25 1444)">DESIGN</text><path d="M895 1607C895 1493.78 986.558 1402 1099.5 1402 1212.44 1402 1304 1493.78 1304 1607 1304 1720.22 1212.44 1812 1099.5 1812 986.558 1812 895 1720.22 895 1607Z" fill="#0CA8DA" fill-rule="evenodd"/><text fill="#FFFFFF" font-family="Arial,Arial_MSFontService,sans-serif" font-weight="700" font-size="220" transform="matrix(1 0 0 1 977.057 1688)">04</text><path d="M2227 1607C2227 1493.78 2318.56 1402 2431.5 1402 2544.44 1402 2636 1493.78 2636 1607 2636 1720.22 2544.44 1812 2431.5 1812 2318.56 1812 2227 1720.22 2227 1607Z" fill="#005C6D" fill-rule="evenodd"/><text fill="#FFFFFF" font-family="Arial,Arial_MSFontService,sans-serif" font-weight="700" font-size="220" transform="matrix(1 0 0 1 2309.14 1688)">05</text><path d="M3569 1607C3569 1493.78 3660.78 1402 3774 1402 3887.22 1402 3979 1493.78 3979 1607 3979 1720.22 3887.22 1812 3774 1812 3660.78 1812 3569 1720.22 3569 1607Z" fill="#0CA8DA" fill-rule="evenodd"/><text fill="#FFFFFF" font-family="Arial,Arial_MSFontService,sans-serif" font-weight="700" font-size="220" transform="matrix(1 0 0 1 3651.39 1688)">06</text><path d="M3771.5 1247.5 3771.5 1403.22" stroke="#1B345E" stroke-width="4.58333" stroke-miterlimit="8" fill="none" fill-rule="evenodd"/><path d="M2432.5 1247.5 2432.5 1403.22" stroke="#1B345E" stroke-width="4.58333" stroke-miterlimit="8" fill="none" fill-rule="evenodd"/><path d="M1100.5 1247.5 1100.5 1403.22" stroke="#1B345E" stroke-width="4.58333" stroke-miterlimit="8" fill="none" fill-rule="evenodd"/><path d="M-101.5 1248.5 4281.22 1248.5" stroke="#1E3766" stroke-width="4.58333" stroke-miterlimit="8" fill="none" fill-rule="evenodd"/><path d="M639 1368 702 1405 639 1442Z" fill="#0CA8DA" fill-rule="evenodd"/><path d="M3166 1375 3230 1412 3166 1449Z" fill="#0CA8DA" fill-rule="evenodd"/><path d="M2097 1420 2161 1457 2097 1494Z" fill="#005C6D" fill-rule="evenodd"/><text fill="#005C6D" font-family="DIN Pro Bold,DIN Pro Bold_MSFontService,sans-serif" font-weight="700" font-size="92" transform="matrix(1 0 0 1 3197.3 474)">DATA QUALITY, </text><text fill="#005C6D" font-family="DIN Pro Bold,DIN Pro Bold_MSFontService,sans-serif" font-weight="700" font-size="92" transform="matrix(1 0 0 1 3197.3 584)">DIGITIZATION &amp; </text><text fill="#005C6D" font-family="DIN Pro Bold,DIN Pro Bold_MSFontService,sans-serif" font-weight="700" font-size="92" transform="matrix(1 0 0 1 3197.3 694)">SHAREABILITY</text></g></svg>